<?xml version="1.0" standalone="no"?><!DOCTYPE svg PUBLIC "-//W3C//DTD SVG 1.1//EN" "http://www.w3.org/Graphics/SVG/1.1/DTD/svg11.dtd"><svg t="1718531491231" class="icon" viewBox="0 0 1024 1024" version="1.1" xmlns="http://www.w3.org/2000/svg" p-id="8769" xmlns:xlink="http://www.w3.org/1999/xlink" width="200" height="200"><path d="M875.6 724c0 128.5-162.8 160-363.6 160s-363.6-31.5-363.6-160S311.2 418.6 512 418.6 875.6 595.5 875.6 724z" fill="#C7F1FF" p-id="8770"></path><path d="M557.9 329.2H383.7c-108.1 0-195.7 87.6-195.7 195.7v243.6c0 19.6 23.8 29.4 37.6 15.4 40.1-40.6 94.9-63.4 151.9-63.4h180.3c108.1 0 195.7-87.6 195.7-195.7 0.1-108-87.5-195.6-195.6-195.6z" fill="#00B1FF" p-id="8771"></path><path d="M641.3 583.8h91.1c56.5 0 102.3 45.8 102.3 102.3v127.4c0 10.3-12.4 15.4-19.6 8.1-21-21.2-49.6-33.2-79.4-33.2h-94.3c-56.5 0-102.3-45.8-102.3-102.3-0.1-56.5 45.7-102.3 102.2-102.3z" fill="#0091F1" p-id="8772"></path><path d="M617.5 652l-1.1-0.3c-21.9-6.2-33.3-19-39.1-28.7-8-13.4-10.5-29.2-7.4-46.9l0.2-0.9 46-207.2 0.2-0.9c4.8-17.4 13.7-30.6 26.6-39.4 9.3-6.3 25-13.1 47.5-9.5l1.1 0.2 64.9 14.4 1.4 0.4c55.9 16.9 82.7 60.6 73.4 119.9l-0.2 1.2-0.3 1.2c-3.7 16.8-10.4 31.3-19.5 43 12.9 20.4 17.6 45.5 13.5 73.9l-0.3 2.1-0.5 2c-18.1 70.3-67.8 103.4-136.4 91l-0.7-0.1-69.3-15.4z" fill="#FFD500" p-id="8773"></path><path d="M607.3 582.5l45.6-205.3c4.6-16.9 15.1-24.1 31.5-21.4l62.5 13.9c37.6 11.3 53.3 37.3 46.9 77.8-5.7 25.7-19.8 41-42.3 46l-0.3 1.4c28.9 14.4 40.9 38.5 36.1 72.4-13.1 51-44.1 72-92.9 63.2l-67.6-15c-16-4.8-22.5-15.7-19.5-33z m89.2-173.2l-12 54.2 25.5 5.7c17.2 2.8 28.2-4.7 33.1-22.6 2.7-16.3-4.3-26.9-21.1-31.6l-25.5-5.7zM673.8 512l-13.3 59.9 38.2 8.5c19.7 3.4 32.3-4.8 37.6-24.6 3.4-19.2-6-31.3-28.1-36.2l-34.4-7.6z" fill="#FFFFFF" p-id="8774"></path><path d="M540.3 819.9c-39.6 5.5-73.6-2.5-100.9-23.7-25.9-20-44.8-51.6-56.4-94l-0.5-1.9-0.3-2c-6.3-43.7-1.7-80.6 13.9-109.6 16.5-30.7 44.3-52 82.6-63.3l2.3-0.7 2.4-0.3c25.1-3.6 45.2-2.7 61.5 2.5 21.7 7 37 22.3 42.8 43l0.6 2 0.3 2.1c2 13.5 0.5 25.5-4.6 35.7-6.1 12.2-17.1 21.2-30.9 25.2l-1.2 0.4-1.3 0.3c-8 1.7-17.1 1.5-27.8-0.6-6.5-1.1-12.4-1.2-17.5-0.3-7.9 2.4-19.2 7.7-13.8 44.3 9.1 33.4 21.1 33.7 29.6 32.7 4.1-1.1 9-3.9 14.2-8.1l0.3-0.2 0.3-0.2c10.5-8.3 18.6-12.5 26.9-14.3l1.2-0.3 1.2-0.2c21.3-2.8 47.9 6.5 59 40.9l0.7 2.2 0.4 2.3c4 22.8-4 44-22.5 59.6-13.7 11.5-33.2 20.1-59.5 26.1l-1.4 0.3-1.6 0.1z" fill="#7BD721" p-id="8775"></path><path d="M414.6 693.6C404 620 428.4 574.4 487.9 556.9c39.6-5.7 62.3 1.7 68.1 22 2 13.4-2.1 21.6-12.2 24.5-3.7 0.8-8.8 0.5-15.2-0.7-11.2-2-21.6-2-31.2 0-32.7 9.4-45.5 37-38.2 82.9 11.3 43.3 33.8 62.8 67.6 58.3 9.6-2 19.3-7 29.2-15.1 6-4.7 10.4-7.3 13.4-7.9 11.2-1.5 19.1 4.7 23.5 18.4 3.9 22.5-15.1 38.5-57 48-61.5 8.5-101.9-22.8-121.3-93.7z" fill="#FFFFFF" p-id="8776"></path><path d="M531 581.1c-31.7 5.5-60.3-7.9-76.7-35.9l-1.1-1.9-4.2-9.3-39.9 6.9-1.3 11-0.3 1.5c-6 31.9-28.4 54.2-60 59.7-25 4.4-42.6-3.3-52.9-10.5-9.8-6.9-22.7-20.2-28.3-44.5l-0.3-1.2-0.2-1.2c-0.9-5-1.3-10.4-1.3-16.1l-1.1-6.1 38-251 0.1-0.4c3.3-19.1 10.2-35.3 20.6-48.1 11.7-14.4 27.7-24.3 46.2-28.7l1.3-0.3 1.3-0.2c19.4-3.4 38.5 0 55.3 9.7 14.4 8.3 26.9 21.3 37.1 38.5l0.6 1 114.9 218.7 0.2 0.4c5.1 10.2 8.2 19.3 9.8 28l0.2 1.3 0.1 1.3c2.8 24.7-5.4 41.4-12.7 51.1-7.2 9.7-21 22-45.4 26.3z" fill="#EF8686" p-id="8777"></path><path d="M344.5 289.6c4-23.4 15.3-37.3 33.9-41.7 18.7-3.3 34.6 5.9 47.5 27.5L540 492.6c3.1 6.3 5.1 11.6 5.8 16 1.9 16.7-5.5 26.6-22.3 29.5-13.8 2.4-24.3-2.6-31.6-15l-17.3-37.9-105.1 18.3-4.9 41.8c-2.6 14.1-10.8 22.4-24.7 24.8-16.8 2.9-27.2-4.3-31.3-21.8-0.6-3.3-0.8-7.2-0.5-11.8l-0.6-3.3 37-243.6z m45.4 24.5l-14.2 128.7 71-12.4-56.8-116.3z" fill="#FFFFFF" p-id="8778"></path></svg>