<?xml version="1.0" standalone="no"?><!DOCTYPE svg PUBLIC "-//W3C//DTD SVG 1.1//EN" "http://www.w3.org/Graphics/SVG/1.1/DTD/svg11.dtd"><svg class="icon" width="200px" height="200.00px" viewBox="0 0 1024 1024" version="1.1" xmlns="http://www.w3.org/2000/svg"><path d="M128 0h768a128 128 0 0 1 128 128v768a128 128 0 0 1-128 128H128a128 128 0 0 1-128-128V128a128 128 0 0 1 128-128z" fill="#222222" /><path d="M640 192L320 580.672V192H128v62.72h64V832h128l512-640zM896 512v64h-192v61.312l192-0.32v194.88h-256V512h256z m-192 192v64h128v-64h-128z" fill="#FFFFFF" /></svg>